<svg width='30' height='30' viewBox='0 0 15 15' xmlns="http://www.w3.org/2000/svg"><path fill="#f82b1c" d="M12 9.5H3a4.5 4.5 0 0 1 9 0zM7.6 4.001h-.2a.5.5 0 0 1-.499-.5v-1a.5.5 0 0 1 .5-.501H7.6a.5.5 0 0 1 .5.5v1a.5.5 0 0 1-.5.501zm5.325 4.646l-.035-.197a.5.5 0 0 1 .406-.58l.983-.173a.5.5 0 0 1 .578.406l.035.196a.5.5 0 0 1-.405.58l-.983.173a.5.5 0 0 1-.579-.405zm-1.819-3.295l-.152-.128a.502.502 0 0 1-.062-.705l.642-.766a.497.497 0 0 1 .703-.062l.153.13a.5.5 0 0 1 .061.704l-.64.765a.498.498 0 0 1-.705.062zM2.075 8.647a.5.5 0 0 1-.58.405l-.982-.174a.5.5 0 0 1-.405-.58l.035-.195a.5.5 0 0 1 .578-.406l.983.174a.5.5 0 0 1 .406.579l-.035.197zm1.819-3.295a.498.498 0 0 1-.704-.062l-.641-.765a.5.5 0 0 1 .06-.704l.154-.13a.497.497 0 0 1 .703.062l.642.766a.502.502 0 0 1-.062.705l-.152.128zM1.5 10.8h12a.5.5 0 0 1 .5.5v.2a.5.5 0 0 1-.5.5h-12a.5.5 0 0 1-.5-.5v-.2a.5.5 0 0 1 .5-.5z"></path></svg>